Title                            : The Rite
Year                             : 2011
Genre                            : Drama | Horror | Thriller
iMDB URL                         : http://www.imdb.com/title/tt1161864/

Complete name                    : The.Rite.2011.BRRIP.720P.H264-ZEKTORM.mp4
Format                           : MPEG-4
Format profile                   : Base Media
Codec ID                         : isom
File size                        : 2.34 GiB
Duration                         : 1h 53mn
Overall bit rate                 : 2951 Kbps
Subtitles                        : English (Format: srt)

Video
ID                               : 1
Format                           : AVC
Format/Info                      : Advanced Video Codec
Format profile                   : High@L4.0
Format settings, CABAC           : Yes
Format settings, ReFrames        : 12 frames
Codec ID                         : avc1
Codec ID/Info                    : Advanced Video Coding
Duration                         : 1h 53mn
Bit rate mode                    : Variable
Bit rate                         : 2510 Kbps
Width                            : 1280 pixels
Height                           : 528 pixels
Display aspect ratio             : 2.424
Frame rate mode                  : Constant
Frame rate                       : 23.976 fps
Resolution                       : 24 bits
Colorimetry                      : 4:2:0
Scan type                        : Progressive
Bits/(Pixel*Frame)               : 0.155
Stream size                      : 1.99 GiB (85%)
Title                            : Video
Writing library                  : x264

Audio
ID                               : 2
Format                           : AAC
Format/Info                      : Advanced Audio Codec
Format version                   : Version 4
Format profile                   : LC
Format settings, SBR             : No
Codec ID                         : 40
Duration                         : 1h 53mn
Bit rate mode                    : Variable
Bit rate                         : 437 Kbps
Maximum bit rate                 : 547 Kbps
Channel(s)                       : 6 channels
Channel positions                : Front: L C R, Rear: L R, LFE
Sampling rate                    : 48.0 KHz
Resolution                       : 16 bits
Stream size                      : 356 MiB (15%)
Language                         : English



Screenshots:

[img]http://img822.imageshack.us/img822/9558/snaptr1.png[/img]

[img]http://img638.imageshack.us/img638/5794/snaptr2.png[/img]

[img]http://img20.imageshack.us/img20/6775/snaptr3.png[/img]

[img]http://img10.imageshack.us/img10/2706/snaptr4.png[/img]
